<svg version="1.2" xmlns="http://www.w3.org/2000/svg" viewBox="0 0 551 308" width="100%" height="308">
	<g fill="currentColor">
		<path d="m1 0.2c17.3 0.2 34.7 0.2 52 0 0.8 32.9 0.6 65.9 1 98.8 0 2.9 0.6 5.9 1.4 8.7 2.1 1.3 3.5-1.3 4.8-2.5 11.7-12.8 27.6-22.1 44.9-24.6 16.7-2.3 34.1-0.7 49.9 5.4 29.3 11.3 52.8 36.1 63.6 65.4 12.7 34.4 9.1 74.7-10.3 105.9-9.3 15.3-22.5 28.2-37.9 37.1-15.8 9.2-34.2 13.5-52.5 13.4-13-0.7-26.1-3.6-37.5-10.3-7.6-4.4-14.3-10.2-20.1-16.8-2.2-1.9-3.5-4.8-6.2-6-2.4 8.6-1.1 17.8-1.1 26.7-17.4 0.1-34.7 0-52 0 0.6-58.1 0.3-116.3 0.4-174.4 0.1-42.3-0.4-84.6-0.4-126.8zm86.6 132.5c-10.3 4.7-18.9 12.6-24.7 22.3-9.4 14.7-11.6 32.8-10.1 49.9 0.8 15.2 7.2 30.4 18.7 40.7 19.7 17.3 51 20.7 73.5 6.5 15.2-9.5 25.5-26 28.4-43.6 2.9-18-0.1-37.3-10.1-52.6-8.1-12.9-21.1-22.8-36-26.3-13.1-3-27.4-2.5-39.7 3.1z"/>
		<path d="m395.8 94.8c15-10.3 33.2-14.8 51.2-15.8 7.6 0.1 15.4-0.4 23.1 0.6 19.7 1.7 39.8 8.2 54.6 21.7 12.7 11.3 19.5 28 21.6 44.6-16.2-0.1-32.3-0.1-48.4 0-1.7-7.4-6.1-14.2-12.6-18.2-11.3-7.2-25.3-7.9-38.3-6.7-9.1 1.1-18.6 4.1-24.8 11.2-5.9 6.1-6.6 17-0.5 23.2 5 5.5 12.4 7.6 19.4 9.6 21.5 5.3 43.7 8.1 64.7 15.3 15.1 5.2 29.4 14.5 37.5 28.6 8.4 14.4 9.4 32.5 4.1 48.3-4.6 13.6-14.1 25.2-25.9 33.3-12.6 8.6-27.5 13.6-42.5 15.8-16.6 2.6-33.7 2-50.1-1.5-17.8-4-35.3-12.2-47.7-26-10.7-11.8-16.7-27.3-18.3-43 16.3 0.2 32.6 0.1 49 0 2 9.5 8.6 17.5 17.1 22.2 12.6 7.2 27.8 8 42 6.9 9.7-1.2 19.9-4.6 26.4-12.4 5.3-6.1 6.4-15.8 1.8-22.7-3.8-5.4-10.1-8.2-16.2-10-22.3-6.3-45.3-9.3-67.3-16.5-13.1-4.5-26-11.3-34.8-22.3-10.4-13-13.8-30.8-10.8-47 3.1-15.7 12.5-30.1 25.7-39.2z"/>
		<path d="m315.1 83.6c12.3-2 24.9-1.7 37.3-1.5-0.2 17-0.5 33.9-0.4 50.9-12 0.1-24.4-0.9-36 3.1-7.8 2.7-14.3 9.3-16.6 17.3-3.3 9.5-2.3 19.7-2.4 29.6q0 59.2 0 118.5c-17.6-0.2-35.2 0-52.9-0.1 1.1-46.2 0.8-92.3 0.9-138.5 0.3-20.8 6.4-42.4 21.3-57.6 13.1-12.6 30.9-19.3 48.8-21.7z"/>
	</g>
</svg>
